HIERARCHY
ROOT newVegas:Hips
{
	OFFSET 0.000000 96.479958 0.000000
	CHANNELS 6 Xposition Yposition Zposition Xrotation Yrotation Zrotation
	JOINT newVegas:Pelvis
	{
		OFFSET 0.000000 0.000000 0.000000
		CHANNELS 3 Xrotation Yrotation Zrotation
		JOINT newVegas:LeftUpLeg
		{
			OFFSET 18.735201 -5.666702 -4.541200
			CHANNELS 3 Xrotation Yrotation Zrotation
			JOINT newVegas:LeftLeg
			{
				OFFSET -0.021200 -31.938179 0.493100
				CHANNELS 3 Xrotation Yrotation Zrotation
				JOINT newVegas:LeftFoot
				{
					OFFSET 0.021200 -31.938179 -4.336299
					CHANNELS 3 Xrotation Yrotation Zrotation
					JOINT newVegas:LeftToeBase
					{
						OFFSET 0.943001 -26.722000 15.023500
						CHANNELS 3 Xrotation Yrotation Zrotation
						End Site
						{
							OFFSET 0.000000 30.670183 0.000000
						}
					}
				}
				JOINT newVegas:Left_PantLeg
				{
					OFFSET 0.663870 -9.044666 -1.108900
					CHANNELS 3 Xrotation Yrotation Zrotation
					End Site
					{
						OFFSET 1.415995 20.635357 0.000000
					}
				}
			}
		}
		JOINT newVegas:RightUpLeg
		{
			OFFSET -18.735201 -5.666702 -4.541200
			CHANNELS 3 Xrotation Yrotation Zrotation
			JOINT newVegas:RightLeg
			{
				OFFSET 0.018946 -31.938133 0.493100
				CHANNELS 3 Xrotation Yrotation Zrotation
				JOINT newVegas:RightFoot
				{
					OFFSET -0.018946 -31.938126 -4.336299
					CHANNELS 3 Xrotation Yrotation Zrotation
					JOINT newVegas:RightToeBase
					{
						OFFSET -0.943001 -26.722004 15.023500
						CHANNELS 3 Xrotation Yrotation Zrotation
						End Site
						{
							OFFSET 0.000000 30.670187 0.000000
						}
					}
				}
				JOINT newVegas:Right_PantLeg
				{
					OFFSET -0.661674 -9.044716 -1.108900
					CHANNELS 3 Xrotation Yrotation Zrotation
					End Site
					{
						OFFSET -1.415958 20.635269 0.000000
					}
				}
			}
		}
	}
	JOINT newVegas:Spine
	{
		OFFSET 0.000000 10.199997 -0.299500
		CHANNELS 3 Xrotation Yrotation Zrotation
		JOINT newVegas:Spine1
		{
			OFFSET 0.000000 11.900002 -1.516600
			CHANNELS 3 Xrotation Yrotation Zrotation
			JOINT newVegas:Spine2
			{
				OFFSET 0.000000 13.600006 -2.842500
				CHANNELS 3 Xrotation Yrotation Zrotation
				JOINT newVegas:Neck
				{
					OFFSET 0.000000 9.624100 -2.890100
					CHANNELS 3 Xrotation Yrotation Zrotation
					JOINT newVegas:Head
					{
						OFFSET 0.000000 14.068802 -1.351900
						CHANNELS 3 Xrotation Yrotation Zrotation
						JOINT newVegas:Hair_Back
						{
							OFFSET 0.000000 3.231903 -17.524799
							CHANNELS 3 Xrotation Yrotation Zrotation
							End Site
							{
								OFFSET 0.000000 19.849884 0.000000
							}
						}
						JOINT newVegas:Hair_Front
						{
							OFFSET 0.000000 31.260406 4.573800
							CHANNELS 3 Xrotation Yrotation Zrotation
							JOINT newVegas:Hair_Front1
							{
								OFFSET 0.000000 2.284103 11.993300
								CHANNELS 3 Xrotation Yrotation Zrotation
								JOINT newVegas:Hair_Front2
								{
									OFFSET 0.000000 2.284103 11.993300
									CHANNELS 3 Xrotation Yrotation Zrotation
									End Site
									{
										OFFSET 0.000000 12.208862 0.000000
									}
								}
							}
						}
						JOINT newVegas:Jowel
						{
							OFFSET 0.000000 -7.458206 6.864100
							CHANNELS 3 Xrotation Yrotation Zrotation
							End Site
							{
								OFFSET 0.000000 19.849884 0.000000
							}
						}
					}
				}
				JOINT newVegas:LeftShoulder
				{
					OFFSET 15.263000 10.923401 -0.547700
					CHANNELS 3 Xrotation Yrotation Zrotation
					JOINT newVegas:LeftArm
					{
						OFFSET 25.438599 -2.830597 -13.032500
						CHANNELS 3 Xrotation Yrotation Zrotation
						JOINT newVegas:LeftForeArm
						{
							OFFSET 29.960503 0.000000 0.000000
							CHANNELS 3 Xrotation Yrotation Zrotation
							JOINT newVegas:LeftHand
							{
								OFFSET 27.849251 0.000000 0.000000
								CHANNELS 3 Xrotation Yrotation Zrotation
								JOINT newVegas:LeftHandThumb1
								{
									OFFSET 4.487587 -3.305161 6.305391
									CHANNELS 3 Xrotation Yrotation Zrotation
									JOINT newVegas:LeftHandThumb2
									{
										OFFSET 5.480453 -3.164139 3.164143
										CHANNELS 3 Xrotation Yrotation Zrotation
										JOINT newVegas:LeftHandThumb3
										{
											OFFSET 5.159721 -2.978973 2.978967
											CHANNELS 3 Xrotation Yrotation Zrotation
											End Site
											{
												OFFSET 2.494507 5.926697 1.738678
											}
										}
									}
								}
								JOINT newVegas:LeftHandIndex1
								{
									OFFSET 18.578728 -0.527832 5.208049
									CHANNELS 3 Xrotation Yrotation Zrotation
									JOINT newVegas:LeftHandIndex2
									{
										OFFSET 3.192009 0.000000 0.000000
										CHANNELS 3 Xrotation Yrotation Zrotation
										JOINT newVegas:LeftHandIndex3
										{
											OFFSET 3.835129 0.000000 0.000000
											CHANNELS 3 Xrotation Yrotation Zrotation
											End Site
											{
												OFFSET -0.034599 3.816971 0.371180
											}
										}
									}
								}
								JOINT newVegas:LeftHandMiddle1
								{
									OFFSET 18.476105 0.000000 0.000000
									CHANNELS 3 Xrotation Yrotation Zrotation
									JOINT newVegas:LeftHandMiddle2
									{
										OFFSET 3.324875 0.000000 0.000000
										CHANNELS 3 Xrotation Yrotation Zrotation
										JOINT newVegas:LeftHandMiddle3
										{
											OFFSET 4.596550 0.000000 0.000000
											CHANNELS 3 Xrotation Yrotation Zrotation
											End Site
											{
												OFFSET 0.057701 4.578827 0.399218
											}
										}
									}
								}
								JOINT newVegas:LeftHandRing1
								{
									OFFSET 17.732719 0.121887 -4.201567
									CHANNELS 3 Xrotation Yrotation Zrotation
									JOINT newVegas:LeftHandRing2
									{
										OFFSET 2.733170 0.000000 0.000000
										CHANNELS 3 Xrotation Yrotation Zrotation
										JOINT newVegas:LeftHandRing3
										{
											OFFSET 3.178268 0.000000 0.000000
											CHANNELS 3 Xrotation Yrotation Zrotation
											End Site
											{
												OFFSET 0.119102 3.170624 0.185394
											}
										}
									}
								}
								JOINT newVegas:LeftHandPinky1
								{
									OFFSET 15.989624 -0.606689 -7.535461
									CHANNELS 3 Xrotation Yrotation Zrotation
									JOINT newVegas:LeftHandPinky2
									{
										OFFSET 2.538986 0.000000 0.000000
										CHANNELS 3 Xrotation Yrotation Zrotation
										JOINT newVegas:LeftHandPinky3
										{
											OFFSET 2.593102 0.000000 0.000000
											CHANNELS 3 Xrotation Yrotation Zrotation
											End Site
											{
												OFFSET -0.150902 2.584198 0.152708
											}
										}
									}
								}
							}
							JOINT newVegas:Left_Sleeve
							{
								OFFSET 0.267448 -0.649796 0.577675
								CHANNELS 3 Xrotation Yrotation Zrotation
								End Site
								{
									OFFSET 0.000000 15.991241 0.000000
								}
							}
							JOINT newVegas:Left_CapeC
							{
								OFFSET 15.715958 -8.608795 -6.935905
								CHANNELS 3 Xrotation Yrotation Zrotation
								JOINT newVegas:Left_CapeC1
								{
									OFFSET 0.000000 -8.688499 0.000000
									CHANNELS 3 Xrotation Yrotation Zrotation
									End Site
									{
										OFFSET 0.000000 8.688499 0.000000
									}
								}
							}
						}
						JOINT newVegas:Left_CapeB
						{
							OFFSET 26.118385 -8.608795 -7.079235
							CHANNELS 3 Xrotation Yrotation Zrotation
							JOINT newVegas:Left_CapeB1
							{
								OFFSET 0.000000 -8.688499 0.000000
								CHANNELS 3 Xrotation Yrotation Zrotation
								End Site
								{
									OFFSET 0.000000 8.688499 0.000000
								}
							}
						}
						JOINT newVegas:Left_CapeA
						{
							OFFSET 5.115639 -8.608795 -10.395809
							CHANNELS 3 Xrotation Yrotation Zrotation
							JOINT newVegas:Left_CapeA1
							{
								OFFSET 0.000000 -8.688499 0.000000
								CHANNELS 3 Xrotation Yrotation Zrotation
								End Site
								{
									OFFSET 0.000000 8.688499 0.000000
								}
							}
						}
					}
				}
				JOINT newVegas:RightShoulder
				{
					OFFSET -15.263000 10.923401 -0.547700
					CHANNELS 3 Xrotation Yrotation Zrotation
					JOINT newVegas:RightArm
					{
						OFFSET -25.438599 -2.830597 -13.032500
						CHANNELS 3 Xrotation Yrotation Zrotation
						JOINT newVegas:RightForeArm
						{
							OFFSET -29.960503 0.000000 0.000000
							CHANNELS 3 Xrotation Yrotation Zrotation
							JOINT newVegas:RightHand
							{
								OFFSET -27.849251 0.000000 0.000000
								CHANNELS 3 Xrotation Yrotation Zrotation
								JOINT newVegas:RightHandThumb1
								{
									OFFSET -4.487587 -3.305161 6.305391
									CHANNELS 3 Xrotation Yrotation Zrotation
									JOINT newVegas:RightHandThumb2
									{
										OFFSET -5.480453 -3.164139 3.164143
										CHANNELS 3 Xrotation Yrotation Zrotation
										JOINT newVegas:RightHandThumb3
										{
											OFFSET -5.159721 -2.978973 2.978967
											CHANNELS 3 Xrotation Yrotation Zrotation
											End Site
											{
												OFFSET -2.494507 5.926697 1.738678
											}
										}
									}
								}
								JOINT newVegas:RightHandIndex1
								{
									OFFSET -18.578728 -0.527832 5.208049
									CHANNELS 3 Xrotation Yrotation Zrotation
									JOINT newVegas:RightHandIndex2
									{
										OFFSET -3.192009 0.000000 0.000000
										CHANNELS 3 Xrotation Yrotation Zrotation
										JOINT newVegas:RightHandIndex3
										{
											OFFSET -3.835129 0.000000 0.000000
											CHANNELS 3 Xrotation Yrotation Zrotation
											End Site
											{
												OFFSET 0.034599 3.816971 0.371180
											}
										}
									}
								}
								JOINT newVegas:RightHandMiddle1
								{
									OFFSET -18.476105 0.000000 0.000000
									CHANNELS 3 Xrotation Yrotation Zrotation
									JOINT newVegas:RightHandMiddle2
									{
										OFFSET -3.324875 0.000000 0.000000
										CHANNELS 3 Xrotation Yrotation Zrotation
										JOINT newVegas:RightHandMiddle3
										{
											OFFSET -4.596550 0.000000 0.000000
											CHANNELS 3 Xrotation Yrotation Zrotation
											End Site
											{
												OFFSET -0.057701 4.578827 0.399218
											}
										}
									}
								}
								JOINT newVegas:RightHandRing1
								{
									OFFSET -17.732719 0.121887 -4.201567
									CHANNELS 3 Xrotation Yrotation Zrotation
									JOINT newVegas:RightHandRing2
									{
										OFFSET -2.733170 0.000000 0.000000
										CHANNELS 3 Xrotation Yrotation Zrotation
										JOINT newVegas:RightHandRing3
										{
											OFFSET -3.178268 0.000000 0.000000
											CHANNELS 3 Xrotation Yrotation Zrotation
											End Site
											{
												OFFSET -0.119102 3.170624 0.185394
											}
										}
									}
								}
								JOINT newVegas:RightHandPinky1
								{
									OFFSET -15.989624 -0.606689 -7.535461
									CHANNELS 3 Xrotation Yrotation Zrotation
									JOINT newVegas:RightHandPinky2
									{
										OFFSET -2.538986 0.000000 0.000000
										CHANNELS 3 Xrotation Yrotation Zrotation
										JOINT newVegas:RightHandPinky3
										{
											OFFSET -2.593102 0.000000 0.000000
											CHANNELS 3 Xrotation Yrotation Zrotation
											End Site
											{
												OFFSET 0.150902 2.584198 0.152708
											}
										}
									}
								}
							}
							JOINT newVegas:Right_CapeC
							{
								OFFSET -15.715958 -8.608795 -6.935905
								CHANNELS 3 Xrotation Yrotation Zrotation
								JOINT newVegas:Right_CapeC1
								{
									OFFSET 0.000000 -8.688499 0.000000
									CHANNELS 3 Xrotation Yrotation Zrotation
									End Site
									{
										OFFSET 0.000000 8.688499 0.000000
									}
								}
							}
							JOINT newVegas:Right_Sleeve
							{
								OFFSET -0.267448 -0.649994 0.577675
								CHANNELS 3 Xrotation Yrotation Zrotation
								End Site
								{
									OFFSET 0.000000 15.991302 0.000000
								}
							}
						}
						JOINT newVegas:Right_CapeA
						{
							OFFSET -5.115540 -8.608795 -10.395824
							CHANNELS 3 Xrotation Yrotation Zrotation
							JOINT newVegas:Right_CapeA1
							{
								OFFSET 0.000000 -8.688499 0.000000
								CHANNELS 3 Xrotation Yrotation Zrotation
								End Site
								{
									OFFSET 0.000000 8.688499 0.000000
								}
							}
						}
						JOINT newVegas:Right_CapeB
						{
							OFFSET -26.118187 -8.608795 -7.079266
							CHANNELS 3 Xrotation Yrotation Zrotation
							JOINT newVegas:Right_CapeB1
							{
								OFFSET 0.000000 -8.688499 0.000000
								CHANNELS 3 Xrotation Yrotation Zrotation
								End Site
								{
									OFFSET 0.000000 8.688499 0.000000
								}
							}
						}
					}
				}
				JOINT newVegas:Left_Collar
				{
					OFFSET 18.625099 8.655502 8.828100
					CHANNELS 3 Xrotation Yrotation Zrotation
					JOINT newVegas:Left_Collar1
					{
						OFFSET 14.783401 10.540405 -1.259500
						CHANNELS 3 Xrotation Yrotation Zrotation
						End Site
						{
							OFFSET 0.000000 18.199875 0.000000
						}
					}
				}
				JOINT newVegas:Collar_Back
				{
					OFFSET 0.000000 15.630707 -20.132601
					CHANNELS 3 Xrotation Yrotation Zrotation
					End Site
					{
						OFFSET 0.000000 22.523010 0.000000
					}
				}
				JOINT newVegas:Left_Peck
				{
					OFFSET 17.239599 -5.132599 25.482599
					CHANNELS 3 Xrotation Yrotation Zrotation
					End Site
					{
						OFFSET 0.000000 22.523010 0.000000
					}
				}
				JOINT newVegas:Right_Peck
				{
					OFFSET -17.239599 -5.132202 25.482599
					CHANNELS 3 Xrotation Yrotation Zrotation
					End Site
					{
						OFFSET 0.000000 22.523010 0.000000
					}
				}
				JOINT newVegas:Right_Collar
				{
					OFFSET -18.625099 8.655792 8.828100
					CHANNELS 3 Xrotation Yrotation Zrotation
					JOINT newVegas:Right_Collar1
					{
						OFFSET -14.783401 10.539993 -1.259500
						CHANNELS 3 Xrotation Yrotation Zrotation
						End Site
						{
							OFFSET 0.000000 18.199631 0.000000
						}
					}
				}
			}
		}
		JOINT newVegas:Belly
		{
			OFFSET 0.000000 -6.540398 9.014299
			CHANNELS 3 Xrotation Yrotation Zrotation
			End Site
			{
				OFFSET 0.000000 11.566666 0.000000
			}
		}
	}
	JOINT newVegas:ElvisFacialAnim_Joint
	{
		OFFSET 1.000000 -95.330101 -8.825800
		CHANNELS 3 Xrotation Yrotation Zrotation
		End Site
		{
			OFFSET 0.000000 35.315800 0.000000
		}
	}
}
MOTION
Frames: 4
Frame Time: 0.016667
0.529350 94.755379 4.130248 -9.644271 5.137381 4.242875 -0.000000 -0.000000 -0.000000 -23.422245 6.093718 0.208252 49.716926 -5.458016 -0.806510 9.593355 0.020216 -2.375857 -0.000001 0.000000 -0.000000 0.000001 -0.000000 0.000001 -6.476852 -6.424675 -3.424588 29.460341 6.156686 3.884417 -13.536754 1.254479 -7.024395 0.000000 0.000000 0.000000 -0.000001 0.000000 -0.000002 15.809525 -5.105841 -2.054807 2.828926 -1.297233 -0.520220 2.839535 -1.291909 -0.480964 -1.983326 -0.027279 0.598263 -1.983321 -0.027279 0.598263 0.000001 0.000000 -0.000000 -1.983327 -0.027279 0.598263 -1.983390 -0.027275 0.598262 -0.000000 0.000000 -0.000000 0.000001 0.000000 -0.000000 1.783135 -2.817866 -5.367186 8.347194 -11.449686 -68.845950 0.000001 -33.539039 0.000001 -23.608525 5.693669 2.838395 -3.469765 3.607322 7.883172 9.703617 22.223513 2.891199 0.000001 0.000000 0.000001 0.162354 3.429611 -10.498180 0.209649 1.554733 -15.358561 0.000001 -0.000000 -0.000000 0.362547 4.206367 -18.344233 0.474609 2.311786 -23.200223 0.000001 0.000000 0.000000 0.689030 4.991697 -26.673253 0.865744 3.066782 -31.521456 0.000001 -0.000001 0.000000 0.902506 5.377895 -30.995378 1.110588 3.433610 -35.838166 0.000001 -0.000002 -0.000002 0.000001 0.000001 -0.000001 0.000001 0.000001 -0.000001 -0.000000 0.000001 -0.000001 0.000001 -0.000002 0.000000 0.000001 -0.000003 0.000000 0.000001 -0.000002 0.000000 0.000001 -0.000003 0.000001 0.815662 9.465461 15.261692 -2.962837 1.768747 67.176700 -0.000000 20.011855 -0.000015 1.318004 -7.062431 -8.055850 -1.986173 -5.435661 -3.761585 8.766463 -20.697690 -3.062087 0.000000 0.000000 0.000001 2.057121 -6.108264 55.293568 5.419353 -4.594512 99.429400 -0.000000 -0.000002 0.000003 2.592850 -6.426534 62.973443 4.946619 -4.648171 93.567308 0.000001 0.000001 -0.000001 2.854988 -6.549331 66.538590 4.919153 -4.649795 93.228209 0.000004 0.000001 0.000001 1.542114 -5.696838 47.168214 2.898956 -4.313186 67.797359 0.000000 0.000002 -0.000000 0.000001 -0.000000 0.000000 0.000000 -0.000001 0.000001 0.000001 -0.000001 0.000000 0.000000 0.000000 -0.000001 0.000000 0.000000 -0.000001 0.000000 0.000000 -0.000001 0.000000 -0.000000 -0.000001 0.000000 -0.000000 -0.000000 0.000000 -0.000000 -0.000000 0.000000 -0.000000 -0.000000 0.000000 -0.000000 -0.000000 0.000000 -0.000000 -0.000000 0.000000 -0.000000 -0.000000 0.000000 -0.000000 -0.000000 0.000000 0.000000 -0.000000 -0.000000 -0.000000 -0.000000 
0.529628 94.804405 5.697899 -9.488314 4.483181 4.257993 0.000000 -0.000000 0.000000 -23.945492 6.725194 -1.509108 45.144381 -5.825054 -0.805698 10.448321 -0.061139 -1.075557 0.000003 -0.000000 0.000000 0.000001 -0.000000 -0.000000 -5.088922 -6.605140 -3.564920 28.960494 6.152303 3.923518 -14.495325 2.172416 -7.012484 0.000000 -0.000000 -0.000000 0.000001 -0.000000 -0.000000 15.718337 -4.925563 -2.262569 2.864631 -1.219264 -0.580729 2.874598 -1.216439 -0.545703 -2.015163 -0.022357 0.593965 -2.015156 -0.022358 0.593965 -0.000000 -0.000000 -0.000000 -2.015163 -0.022358 0.593965 -2.015163 -0.022356 0.593964 -0.000000 -0.000000 0.000000 -0.000000 -0.000000 -0.000000 1.743983 -3.170770 -5.307285 8.560796 -9.744668 -69.768661 -0.000005 -31.640742 0.000009 -20.354020 6.201445 1.849375 -3.469766 3.607324 7.883171 9.703617 22.223516 2.891197 -0.000000 -0.000002 -0.000003 0.162354 3.429613 -10.498179 0.209649 1.554734 -15.358558 -0.000000 0.000000 0.000001 0.362547 4.206369 -18.344239 0.474609 2.311786 -23.200232 0.000000 -0.000000 -0.000002 0.689030 4.991699 -26.673251 0.865743 3.066784 -31.521456 -0.000001 0.000001 -0.000001 0.902506 5.377894 -30.995378 1.110592 3.433615 -35.838173 0.000001 -0.000003 -0.000001 -0.000001 0.000000 -0.000000 -0.000001 0.000000 -0.000000 -0.000002 0.000000 -0.000000 -0.000000 0.000000 0.000000 0.000000 0.000000 0.000000 -0.000000 0.000000 0.000000 0.000000 -0.000000 0.000001 0.830233 9.367765 15.335609 -2.994204 1.838902 66.790439 -0.000002 20.328286 0.000015 1.692687 -7.849710 -8.272423 -1.986175 -5.435663 -3.761589 8.766463 -20.697691 -3.062085 0.000002 0.000000 0.000001 2.057120 -6.108267 55.293568 5.419353 -4.594513 99.429393 0.000001 0.000002 0.000003 2.592851 -6.426534 62.973443 4.946619 -4.648171 93.567308 -0.000001 -0.000000 0.000000 2.854988 -6.549331 66.538590 4.919152 -4.649793 93.228216 0.000001 -0.000003 0.000000 1.542112 -5.696840 47.168214 2.898951 -4.313191 67.797359 0.000001 0.000005 -0.000001 0.000000 0.000000 -0.000000 0.000000 -0.000000 0.000000 0.000000 -0.000000 -0.000000 0.000001 0.000000 -0.000000 0.000001 0.000000 0.000000 0.000001 0.000000 -0.000000 0.000001 -0.000000 0.000000 0.000001 0.000000 0.000000 0.000001 0.000000 0.000000 0.000001 0.000000 0.000000 0.000001 0.000000 0.000000 0.000001 0.000000 0.000000 0.000001 0.000000 0.000000 0.000001 0.000000 0.000000 -0.000000 -0.000000 -0.000000 0.000000 -0.000000 0.000000 
0.583424 94.832863 7.370873 -9.308317 3.893611 4.226533 -0.000001 0.000000 -0.000000 -24.623535 6.734812 -2.556552 41.292889 -5.696592 -0.778198 10.144975 0.410086 -1.458174 0.000002 0.000001 -0.000000 0.000000 -0.000000 -0.000000 -3.520146 -6.689188 -3.659070 28.254117 6.139096 3.956364 -15.467375 2.922370 -6.919575 -0.000000 0.000000 -0.000000 0.000001 -0.000000 -0.000001 15.552966 -4.747798 -2.394527 2.925966 -1.153219 -0.636157 2.934974 -1.152664 -0.605375 -2.046823 -0.017723 0.589681 -2.046820 -0.017722 0.589683 0.000001 0.000000 -0.000000 -2.046755 -0.017720 0.589683 -2.046900 -0.017736 0.589686 0.000000 -0.000000 -0.000000 0.000001 0.000000 -0.000000 1.706085 -3.362187 -5.359654 8.566210 -8.219118 -70.564829 0.000002 -29.568931 0.000007 -16.683217 6.782377 0.412782 -3.469764 3.607323 7.883173 9.703620 22.223518 2.891200 0.000001 -0.000003 -0.000005 0.162353 3.429612 -10.498181 0.209649 1.554734 -15.358561 -0.000000 -0.000000 -0.000002 0.362549 4.206369 -18.344237 0.474610 2.311786 -23.200223 0.000001 0.000000 -0.000002 0.689030 4.991699 -26.673256 0.865742 3.066782 -31.521456 0.000000 -0.000000 -0.000002 0.902507 5.377896 -30.995381 1.110590 3.433614 -35.838166 -0.000000 0.000000 -0.000001 0.000001 -0.000001 0.000001 0.000001 -0.000001 0.000001 0.000000 -0.000000 0.000002 0.000000 0.000001 0.000001 0.000000 0.000001 0.000000 0.000000 0.000001 0.000001 0.000000 -0.000000 0.000001 0.840506 9.299988 15.386815 -3.179687 1.962934 66.379241 -0.000004 20.310418 -0.000006 1.979813 -8.025343 -8.406081 -1.986174 -5.435663 -3.761586 8.766465 -20.697690 -3.062085 0.000001 0.000001 -0.000000 2.057124 -6.108265 55.293571 5.419351 -4.594516 99.429393 -0.000001 0.000001 0.000002 2.592849 -6.426533 62.973443 4.946619 -4.648171 93.567301 -0.000000 -0.000000 0.000003 2.854987 -6.549331 66.538590 4.919156 -4.649790 93.228223 0.000002 -0.000001 0.000005 1.542111 -5.696842 47.168214 2.898953 -4.313189 67.797359 0.000001 0.000002 -0.000001 0.000001 -0.000001 0.000000 -0.000000 -0.000002 0.000000 0.000001 -0.000001 -0.000000 0.000001 -0.000001 -0.000001 0.000001 -0.000001 -0.000000 0.000001 -0.000001 -0.000001 0.000001 -0.000001 -0.000000 -0.000001 0.000000 -0.000000 -0.000001 0.000000 -0.000000 -0.000001 0.000000 -0.000000 -0.000001 0.000000 -0.000000 -0.000001 0.000000 -0.000000 -0.000001 0.000000 -0.000000 -0.000001 0.000000 -0.000000 0.000000 0.000000 0.000000 -0.000001 0.000000 -0.000000 
0.641476 94.897385 9.225410 -9.113735 3.234307 4.200212 0.000000 0.000000 0.000000 -24.473411 6.672064 -3.766659 35.516396 -5.536001 -0.779512 10.316390 0.992583 -1.476904 0.000001 -0.000000 -0.000000 -0.000000 -0.000000 -0.000000 -1.593134 -6.740724 -3.770935 27.056691 6.117047 4.000643 -16.325347 3.695394 -6.761883 -0.000000 0.000000 -0.000000 0.000002 0.000000 -0.000000 15.378021 -4.551126 -2.553711 2.992097 -1.077589 -0.696962 3.000078 -1.079577 -0.670915 -2.081896 -0.012477 0.585622 -2.081898 -0.012476 0.585624 0.000000 0.000000 -0.000000 -2.081900 -0.012474 0.585623 -2.081900 -0.012492 0.585627 0.000000 0.000000 -0.000000 0.000000 0.000000 -0.000000 1.662389 -3.586409 -5.415227 8.625615 -6.507517 -71.432365 -0.000003 -27.273623 0.000027 -12.557441 7.323395 -1.225766 -3.469763 3.607325 7.883174 9.703620 22.223518 2.891202 0.000002 -0.000003 -0.000007 0.162354 3.429613 -10.498182 0.209649 1.554734 -15.358561 0.000000 -0.000000 0.000001 0.362549 4.206369 -18.344239 0.474610 2.311786 -23.200228 0.000001 -0.000001 0.000001 0.689031 4.991698 -26.673251 0.865745 3.066781 -31.521456 0.000000 -0.000001 -0.000000 0.902507 5.377898 -30.995378 1.110590 3.433611 -35.838166 -0.000000 -0.000002 -0.000002 -0.000000 0.000000 -0.000000 -0.000000 0.000000 -0.000000 -0.000001 0.000001 0.000000 0.000001 -0.000001 -0.000000 0.000001 -0.000001 -0.000001 0.000001 -0.000001 -0.000000 0.000002 -0.000002 -0.000000 0.852755 9.220244 15.447173 -3.645492 2.192715 65.984224 0.000011 19.518034 -0.000025 2.258817 -7.623027 -8.499338 -1.986172 -5.435661 -3.761587 8.766462 -20.697684 -3.062087 0.000002 -0.000003 -0.000003 2.057126 -6.108265 55.293571 5.419356 -4.594515 99.429393 0.000002 -0.000001 -0.000001 2.592849 -6.426534 62.973443 4.946619 -4.648173 93.567301 0.000000 -0.000002 0.000004 2.854991 -6.549331 66.538590 4.919153 -4.649794 93.228216 0.000001 -0.000001 -0.000003 1.542116 -5.696842 47.168214 2.898949 -4.313188 67.797359 -0.000001 0.000003 0.000000 -0.000000 -0.000001 0.000000 -0.000000 -0.000001 0.000000 -0.000000 -0.000001 0.000000 0.000001 0.000002 0.000001 0.000001 0.000002 0.000001 0.000001 0.000002 0.000001 0.000001 0.000002 0.000001 0.000001 -0.000000 -0.000000 0.000001 -0.000000 -0.000000 0.000001 -0.000000 -0.000000 0.000001 -0.000000 -0.000000 0.000001 -0.000000 -0.000000 0.000001 -0.000000 -0.000000 0.000001 -0.000000 -0.000000 -0.000000 0.000000 0.000000 0.000000 0.000000 0.000000 
